<svg xmlns="http://www.w3.org/2000/svg" viewBox="0 0 512 512" id="laptop"><g data-name="Layer 2"><polygon fill="#0af" points="361.5 225.82 361.5 361.5 331.25 361.5 331.25 256 331.25 225.82 361.5 225.82"></polygon><polygon fill="#ffd739" points="241 301.12 241 361.5 210.75 361.5 210.75 316.25 210.75 301.12 241 301.12"></polygon><polygon fill="#00ee6c" points="301.25 271 301.25 361.5 271 361.5 271 286.12 271 271 301.25 271"></polygon><rect width="30.25" height="30.25" x="150.49" y="331.25" fill="#eb1969"></rect><path fill="#444443" d="M466.88,451.75h12.64A45.08,45.08,0,0,1,437,482H75a45.08,45.08,0,0,1-42.52-30.25h434.4Z"></path><path fill="#d6e3fc" d="M451.87,165.56V421.75H60.13V165.56ZM421.63,376.5a15,15,0,0,0-15-15H391.5V210.82a15,15,0,0,0-15-15H316.25a15,15,0,0,0-15,15V241H256a15,15,0,0,0-15,15v15.12H195.75a15,15,0,0,0-15,15v15.13H135.5a15,15,0,0,0-15,15V361.5H105.37a15,15,0,0,0,0,30H406.63A15,15,0,0,0,421.63,376.5Z"></path><path d="M512,436.75V437a75.08,75.08,0,0,1-75,75H75A75.08,75.08,0,0,1,0,437v-.25a15,15,0,0,1,15-15H30.12v15a15,15,0,0,0,15,15H32.48A45.08,45.08,0,0,0,75,482H437a45.08,45.08,0,0,0,42.52-30.25H466.88a15,15,0,0,0,15-15v-15H497A15,15,0,0,1,512,436.75Z"></path><path d="M481.88 421.75v15a15 15 0 01-30 0v-15zM481.88 150.56V421.75h-30V165.56H60.13V421.75h-30V150.56a15 15 0 0115-15H466.88A15 15 0 01481.88 150.56z"></path><path d="M466.88 451.75H45.12a15 15 0 0015-15v-15H451.87v15A15 15 0 00466.88 451.75zM406.63 361.5a15 15 0 010 30H376.51a15 15 0 0015-15v-15z"></path><path d="M391.5 361.5v15a15 15 0 11-30 0v-15zM391.5 210.82V361.5h-30V225.82H331.25V256a15 15 0 00-15-15h-15V210.82a15 15 0 0115-15h60.26A15 15 0 01391.5 210.82z"></path><path d="M376.51 391.5H316.25a15 15 0 0015-15v-15h30.26v15A15 15 0 00376.51 391.5zM331.25 256V361.5h-30V241h15A15 15 0 01331.25 256zM319.86 26.45a15 15 0 11-21.21 21.21 60.33 60.33 0 00-85.3 0 15 15 0 01-21.21-21.21 90.32 90.32 0 01127.72 0z"></path><path d="M331.25,376.5a15,15,0,0,1-30,0v-15h30Z"></path><path d="M301.25 376.5a15 15 0 0015 15H256a15 15 0 0015-15v-15h30.25zM301.25 241v30H271v15.12a15 15 0 00-15-15H241V256a15 15 0 0115-15zM287.91 73.47A15 15 0 11266.7 94.68a15.17 15.17 0 00-21.4 0 15 15 0 11-21.21-21.21A45.17 45.17 0 01287.91 73.47z"></path><path d="M271 286.12V361.5H241V271.12h15A15 15 0 01271 286.12zM271 376.5a15 15 0 11-30 0v-15h30z"></path><path d="M256 391.5H195.75a15 15 0 0015-15v-15H241v15A15 15 0 00256 391.5zM241 271.12v30H210.75v15.13a15 15 0 00-15-15h-15V286.12a15 15 0 0115-15z"></path><path d="M210.75 316.25V361.5h-30V301.25h15A15 15 0 01210.75 316.25zM210.75 376.5a15 15 0 01-30 0v-15h30z"></path><path d="M180.75 376.5a15 15 0 0015 15H135.5a15 15 0 0015-15v-15h30.26zM180.75 301.25v30H150.49V361.5h-30V316.25a15 15 0 0115-15z"></path><path d="M150.49,361.5v15a15,15,0,1,1-30,0v-15Z"></path><path d="M135.5 391.5H105.37a15 15 0 010-30H120.5v15A15 15 0 00135.5 391.5zM60.13 421.75v15a15 15 0 01-30 0v-15z"></path></g></svg>